<?xml version="1.0" encoding="UTF-8" standalone="no"?>
<!-- Created with Inkscape (http://www.inkscape.org/) -->

<svg
   width="1600"
   height="1500"
   viewBox="0 0 1600 1500"
   version="1.1"
   id="svg5"
   inkscape:version="1.2.2 (732a01da63, 2022-12-09, custom)"
   sodipodi:docname="projectsPath.svg"
   xmlns:inkscape="http://www.inkscape.org/namespaces/inkscape"
   xmlns:sodipodi="http://sodipodi.sourceforge.net/DTD/sodipodi-0.dtd"
   xmlns="http://www.w3.org/2000/svg"
   xmlns:svg="http://www.w3.org/2000/svg">
  <sodipodi:namedview
     id="namedview7"
     pagecolor="#ffffff"
     bordercolor="#000000"
     borderopacity="0.25"
     inkscape:showpageshadow="2"
     inkscape:pageopacity="0.0"
     inkscape:pagecheckerboard="false"
     inkscape:deskcolor="#d1d1d1"
     inkscape:document-units="px"
     showgrid="false"
     inkscape:zoom="0.29732611"
     inkscape:cx="531.40304"
     inkscape:cy="839.14595"
     inkscape:window-width="1680"
     inkscape:window-height="986"
     inkscape:window-x="0"
     inkscape:window-y="27"
     inkscape:window-maximized="1"
     inkscape:current-layer="layer1" />
  <defs
     id="defs2" />
  <g
     inkscape:label="Camada 1"
     inkscape:groupmode="layer"
     id="layer1">
    <path
       style="display:inline;fill:#000000;stroke-width:0.264583"
       d="M 58.743487,78.163885 105.92543,106.93184"
       id="path234" />
    <path
       style="display:inline;fill:#000000;stroke-width:0.264583"
       d="m 130.29632,64.810179 98.37037,23.178256"
       id="path308" />
    <path
       style="fill:#000000;fill-opacity:0;stroke:#000000;stroke-width:0.805215"
       d="m 1328.9694,10.123408 c -87.7472,60.0926 -207.7912,81.534284 -170.4673,204.642852 24.4365,72.69544 -76.3178,138.18977 -154.0345,115.92975 C 858.35407,271.27744 922.19293,249.52866 770.98442,199.84775 618.50793,163.12693 579.685,292.55816 525.1234,355.40575 473.57916,409.97763 356.1181,467.85803 287.52252,398.70304 215.12336,314.8158 262.57736,179.44062 381.25654,139.1557 c 91.0943,-24.82351 203.93699,20.82883 211.58342,101.53133 10.18372,121.88409 -52.06921,244.33611 -148.68199,337.58861 -84.88892,49.74794 -194.40998,12.1182 -278.8386,-18.56141 C 87.614671,532.77328 -13.84972,489.15977 -4.4905158,410.48603 -15.087838,336.83229 118.58791,300.99651 176.3997,353.80211 c 90.52377,89.77459 8.29961,224.32335 109.77403,309.80866 88.79047,54.14825 208.79472,37.72039 311.34343,25.45667 121.52471,-25.96453 231.77306,-119.92546 211.90838,-224.36322 -33.44293,-86.76138 -222.4778,-53.31473 -214.74372,34.41995 6.76907,83.41553 121.46053,121.6267 213.56972,125.75263 165.33036,9.59386 325.75636,-76.69785 398.95916,-190.28619 47.0774,-98.01886 -156.9828,-102.33921 -210.61747,-40.05133 -54.21333,64.44451 22.06307,143.14331 101.73857,165.11547 96.4589,30.82355 209.3471,-0.10664 276.0722,-65.74209 60.9302,-70.48516 109.7122,-137.86313 16.9841,-193.77142 -195.0455,-64.69305 -249.1822,149.93307 -166.199,218.65683 74.2626,54.5025 170.6344,226.64582 -75.6103,279.95584 C 1019.4812,822.23302 822.81971,576.94507 707.92032,702.80772 595.78471,825.32259 550.89876,937.21105 229.54877,883.96831 118.95615,864.25377 37.914063,964.76841 73.624042,1042.3799 c 32.440868,82.6642 164.325048,99.3346 256.197078,75.8938 191.55287,-42.9894 285.53662,-124.05823 375.12934,-255.93463 112.36252,-130.18438 336.18654,-63.72362 409.73744,-22.46213 93.218,63.0673 81.8121,191.58346 -18.1733,246.56146 -61.6092,48.0422 -196.83608,83.0599 -250.75198,11.5368 -45.74864,-76.888 19.01885,-163.63819 93.02793,-213.43042 80.67465,-43.86951 182.75035,-14.03845 261.69425,16.37327 83.7181,25.36584 211.1684,10.64268 228.4395,-71.95338 C 1431.4833,575.57168 1040.7306,644.55173 871.18525,707.21769 722.66701,767.96027 581.19334,864.84894 404.5039,858.40067 316.81374,852.1841 255.6513,788.61937 285.3998,706.4427 333.00774,608.93914 462.62752,549.89112 591.55245,547.4606 779.70256,533.49466 982.89597,577.25824 1157.5314,502.12418 1317.2938,431.51299 1461.7227,346.72446 1531.7167,188.43758 1580.6842,57.305961 1427.7373,-57.486828 1328.9694,10.123408 Z"
       id="path500"
       sodipodi:nodetypes="cccccccccccccccccccccccccccccccccccccccccc" />
  </g>
</svg>
