<?xml version="1.0" encoding="UTF-8" standalone="no"?>
<!-- Created with Inkscape (http://www.inkscape.org/) -->

<svg
   width="1600"
   height="1500"
   viewBox="0 0 1600 1500"
   version="1.1"
   id="svg5"
   inkscape:version="1.2.2 (732a01da63, 2022-12-09, custom)"
   sodipodi:docname="projectsPath.svg"
   xmlns:inkscape="http://www.inkscape.org/namespaces/inkscape"
   xmlns:sodipodi="http://sodipodi.sourceforge.net/DTD/sodipodi-0.dtd"
   xmlns="http://www.w3.org/2000/svg"
   xmlns:svg="http://www.w3.org/2000/svg">
  <sodipodi:namedview
     id="namedview7"
     pagecolor="#ffffff"
     bordercolor="#000000"
     borderopacity="0.25"
     inkscape:showpageshadow="2"
     inkscape:pageopacity="0.0"
     inkscape:pagecheckerboard="false"
     inkscape:deskcolor="#d1d1d1"
     inkscape:document-units="px"
     showgrid="false"
     inkscape:zoom="0.29732611"
     inkscape:cx="531.40304"
     inkscape:cy="835.78264"
     inkscape:window-width="1680"
     inkscape:window-height="986"
     inkscape:window-x="0"
     inkscape:window-y="27"
     inkscape:window-maximized="1"
     inkscape:current-layer="layer1" />
  <defs
     id="defs2" />
  <g
     inkscape:label="Camada 1"
     inkscape:groupmode="layer"
     id="layer1">
    <path
       style="display:inline;fill:#000000;stroke-width:0.264583"
       d="M 58.743487,78.163885 105.92543,106.93184"
       id="path234" />
    <path
       style="display:inline;fill:#000000;stroke-width:0.264583"
       d="m 130.29632,64.810179 98.37037,23.178256"
       id="path308" />
    <path
       style="fill:#000000;fill-opacity:0;stroke:#000000;stroke-width:0.842214"
       d="m 1328.9561,12.023532 c -87.7452,65.743384 -207.7863,89.201328 -170.4633,223.886358 24.4359,79.53133 -76.316,151.18439 -154.0308,126.83116 C 858.35192,297.73508 922.18926,273.94116 770.98435,219.58853 618.51149,179.41468 579.68948,321.01692 525.12918,389.77436 473.58616,449.47789 356.1279,512.80105 287.53395,437.1431 215.13651,345.36755 262.58938,197.26242 381.26574,153.18932 472.35787,126.03154 585.19788,175.97679 592.84413,264.26811 603.0276,397.61352 540.77616,531.58027 444.16567,633.60173 359.27877,688.0277 249.76032,646.85946 165.33371,613.29491 87.630855,583.82058 -13.831123,536.10589 -4.4721415,450.03409 -15.069212,369.45435 118.60336,330.24877 176.41377,388.01992 c 90.52162,98.21651 8.29941,245.41751 109.77142,338.9414 88.78836,59.24006 208.78975,41.26741 311.33603,27.85048 121.52182,-28.4061 231.76754,-131.20261 211.90334,-245.46113 -33.44214,-94.91995 -222.47251,-58.32816 -214.73862,37.65662 6.76891,91.25947 121.45764,133.06382 213.56464,137.57773 165.32643,10.49601 325.74862,-83.91011 398.94972,-208.17968 47.0762,-107.23603 -156.9791,-111.96264 -210.61251,-43.81754 -54.21204,70.50452 22.06251,156.60373 101.73611,180.64204 96.4566,33.72203 209.3422,-0.11667 276.0657,-71.92412 60.9287,-77.11321 109.7096,-150.82704 16.9837,-211.99264 -195.0409,-70.77644 -249.1763,164.03196 -166.1951,239.21814 74.2609,59.62762 170.6304,247.95837 -75.6085,306.28137 C 1019.4752,900.49955 822.81841,632.14605 707.92175,769.84414 595.78881,903.87965 550.90392,1026.2895 229.56158,968.0401 118.97159,946.47171 37.931429,1056.4382 73.640558,1141.3479 c 32.440092,90.4374 164.321142,108.6755 256.190982,83.0304 191.54832,-47.0319 285.52983,-135.724 375.12042,-280.00134 112.35985,-142.42622 336.17854,-69.71585 409.72774,-24.57435 93.2157,68.99781 81.8101,209.59889 -18.1729,269.74679 -61.6077,52.5598 -196.83141,90.8704 -250.74603,12.6216 -45.74755,-84.1181 19.0184,-179.0258 93.02572,-233.50023 80.67271,-47.99476 182.74601,-15.35855 261.68801,17.91293 83.7161,27.7511 211.1634,11.64346 228.4341,-78.71949 C 1431.4675,630.64351 1040.7241,706.11007 871.1828,774.6688 722.66809,841.12328 581.19778,947.12284 404.51255,940.06821 316.82447,933.26707 255.66349,863.72505 285.41128,773.82093 333.01809,667.14866 462.63478,602.54809 591.55665,599.88902 779.70228,584.60979 982.89086,632.48866 1157.5221,550.2894 1317.2807,473.03832 1461.7062,380.27673 1531.6985,207.10541 1580.6649,63.642877 1427.7216,-61.944406 1328.9561,12.023532 Z"
       id="path500"
       sodipodi:nodetypes="cccccccccccccccccccccccccccccccccccccccccc" />
  </g>
</svg>
